<svg width="23" height="15" viewBox="0 0 23 15" fill="none" xmlns="http://www.w3.org/2000/svg">
<path d="M0.25 8.67622V13.0316C0.25 13.8207 0.909178 14.4606 1.72264 14.4606H5.6968V6.7395L0.25 8.67622Z" fill="url(#paint0_linear_1_2569)"/>
<path d="M5.92383 6.7395L7.8693 9.57389V14.4604L5.92383 11.8678V6.7395Z" fill="url(#paint1_linear_1_2569)"/>
<path d="M8.09692 5.48502V14.4606H13.5465L13.5437 3.54834L8.09692 5.48502Z" fill="url(#paint2_linear_1_2569)"/>
<path d="M13.7705 3.5481L15.9855 7.2801V14.4606L13.7717 10.6214L13.7705 3.5481Z" fill="url(#paint3_linear_1_2569)"/>
<path d="M16.2128 2.194V14.4606H20.9063C21.7196 14.4606 22.3788 13.8209 22.3788 13.0315V0L16.2128 2.194Z" fill="url(#paint4_linear_1_2569)"/>
<defs>
<linearGradient id="paint0_linear_1_2569" x1="0.25" y1="-0.000138533" x2="23.9995" y2="3.51748" gradientUnits="userSpaceOnUse">
<stop stop-color="#2D8DFE"/>
<stop offset="1" stop-color="#0E77F1"/>
</linearGradient>
<linearGradient id="paint1_linear_1_2569" x1="0.249832" y1="-0.000139367" x2="23.9994" y2="3.51748" gradientUnits="userSpaceOnUse">
<stop stop-color="#2D8DFE"/>
<stop offset="1" stop-color="#0E77F1"/>
</linearGradient>
<linearGradient id="paint2_linear_1_2569" x1="0.250149" y1="1.31328e-05" x2="23.9997" y2="3.51763" gradientUnits="userSpaceOnUse">
<stop stop-color="#2D8DFE"/>
<stop offset="1" stop-color="#0E77F1"/>
</linearGradient>
<linearGradient id="paint3_linear_1_2569" x1="0.2499" y1="-1.28627e-05" x2="23.9994" y2="3.51761" gradientUnits="userSpaceOnUse">
<stop stop-color="#2D8DFE"/>
<stop offset="1" stop-color="#0E77F1"/>
</linearGradient>
<linearGradient id="paint4_linear_1_2569" x1="0.250075" y1="4.19052e-07" x2="23.9996" y2="3.51762" gradientUnits="userSpaceOnUse">
<stop stop-color="#2D8DFE"/>
<stop offset="1" stop-color="#0E77F1"/>
</linearGradient>
</defs>
</svg>
