<svg width="50" height="17" viewBox="0 0 50 17" fill="none" xmlns="http://www.w3.org/2000/svg">
<g clip-path="url(#clip0_1_2614)">
<rect width="12.75" height="8.25" transform="translate(0.5 4.625)" fill="#FFD500"/>
<rect x="0.5" y="4.25" width="12.75" height="4.5" fill="#005BBB"/>
</g>
<path d="M20.2666 8.74585V9.63794H15.1499V8.74585H20.2666ZM18.1851 6.56689V12.0015H17.2366V6.56689H18.1851ZM22.7384 8.55103H23.4152C23.7467 8.55103 24.0201 8.49634 24.2355 8.38696C24.4542 8.27417 24.6166 8.12207 24.7225 7.93066C24.8319 7.73584 24.8866 7.51709 24.8866 7.27441C24.8866 6.9873 24.8387 6.74634 24.743 6.55151C24.6473 6.35669 24.5038 6.20972 24.3124 6.1106C24.121 6.01147 23.8783 5.96191 23.5844 5.96191C23.3178 5.96191 23.0819 6.01489 22.8768 6.12085C22.6752 6.22339 22.5162 6.37036 22.4 6.56177C22.2872 6.75317 22.2308 6.97876 22.2308 7.23853H21.2824C21.2824 6.85913 21.3781 6.51392 21.5695 6.20288C21.7609 5.89185 22.0292 5.64404 22.3744 5.45947C22.723 5.2749 23.1263 5.18262 23.5844 5.18262C24.0355 5.18262 24.4303 5.26294 24.7687 5.42358C25.1071 5.58081 25.3702 5.81665 25.5582 6.1311C25.7462 6.44214 25.8402 6.83008 25.8402 7.29492C25.8402 7.48291 25.7958 7.68457 25.7069 7.8999C25.6215 8.11182 25.4865 8.31006 25.3019 8.49463C25.1207 8.6792 24.8849 8.8313 24.5944 8.95093C24.3038 9.06714 23.9552 9.12524 23.5485 9.12524H22.7384V8.55103ZM22.7384 9.33032V8.76123H23.5485C24.0236 8.76123 24.4166 8.81763 24.7277 8.93042C25.0387 9.04321 25.2831 9.1936 25.4608 9.38159C25.642 9.56958 25.7684 9.77637 25.8402 10.002C25.9154 10.2241 25.953 10.4463 25.953 10.6685C25.953 11.0171 25.8932 11.3264 25.7736 11.5964C25.6574 11.8665 25.4916 12.0955 25.2762 12.2834C25.0643 12.4714 24.8148 12.6133 24.5277 12.709C24.2406 12.8047 23.9279 12.8525 23.5895 12.8525C23.2648 12.8525 22.9589 12.8064 22.6718 12.7141C22.3881 12.6218 22.1368 12.4885 21.9181 12.3142C21.6993 12.1365 21.5284 11.9194 21.4054 11.6631C21.2824 11.4033 21.2208 11.1077 21.2208 10.7761H22.1693C22.1693 11.0359 22.2257 11.2632 22.3385 11.458C22.4547 11.6528 22.6188 11.8049 22.8307 11.9143C23.046 12.0203 23.299 12.0732 23.5895 12.0732C23.88 12.0732 24.1295 12.0237 24.338 11.9246C24.5499 11.822 24.7123 11.6682 24.8251 11.4631C24.9413 11.2581 24.9994 11 24.9994 10.689C24.9994 10.3779 24.9345 10.1233 24.8046 9.92505C24.6747 9.72339 24.4901 9.57471 24.2509 9.479C24.015 9.37988 23.7365 9.33032 23.4152 9.33032H22.7384ZM31.9932 10.73C31.9932 11.1846 31.8872 11.5708 31.6753 11.8887C31.4668 12.2031 31.1831 12.4424 30.8242 12.6064C30.4688 12.7705 30.0671 12.8525 29.6194 12.8525C29.1716 12.8525 28.7683 12.7705 28.4094 12.6064C28.0505 12.4424 27.7669 12.2031 27.5584 11.8887C27.3499 11.5708 27.2456 11.1846 27.2456 10.73C27.2456 10.4326 27.302 10.1609 27.4148 9.91479C27.531 9.66528 27.6934 9.44824 27.9019 9.26367C28.1138 9.0791 28.3633 8.93726 28.6504 8.83813C28.9409 8.7356 29.2605 8.68433 29.6091 8.68433C30.0671 8.68433 30.4756 8.77319 30.8345 8.95093C31.1934 9.12524 31.4754 9.36621 31.6804 9.67383C31.8889 9.98145 31.9932 10.3335 31.9932 10.73ZM31.0396 10.7095C31.0396 10.4326 30.9797 10.1882 30.8601 9.97632C30.7405 9.76099 30.573 9.59351 30.3577 9.47388C30.1423 9.35425 29.8928 9.29443 29.6091 9.29443C29.3186 9.29443 29.0674 9.35425 28.8555 9.47388C28.647 9.59351 28.4846 9.76099 28.3684 9.97632C28.2522 10.1882 28.1941 10.4326 28.1941 10.7095C28.1941 10.9966 28.2505 11.2427 28.3633 11.4478C28.4795 11.6494 28.6436 11.8049 28.8555 11.9143C29.0708 12.0203 29.3254 12.0732 29.6194 12.0732C29.9133 12.0732 30.1663 12.0203 30.3782 11.9143C30.5901 11.8049 30.7525 11.6494 30.8652 11.4478C30.9815 11.2427 31.0396 10.9966 31.0396 10.7095ZM31.8189 7.22827C31.8189 7.59058 31.7232 7.91699 31.5317 8.20752C31.3403 8.49805 31.0789 8.72705 30.7473 8.89453C30.4158 9.06201 30.0398 9.14575 29.6194 9.14575C29.1921 9.14575 28.811 9.06201 28.4761 8.89453C28.1445 8.72705 27.8848 8.49805 27.6968 8.20752C27.5088 7.91699 27.4148 7.59058 27.4148 7.22827C27.4148 6.79419 27.5088 6.42505 27.6968 6.12085C27.8882 5.81665 28.1497 5.58423 28.4812 5.42358C28.8128 5.26294 29.1904 5.18262 29.6143 5.18262C30.0415 5.18262 30.4209 5.26294 30.7525 5.42358C31.084 5.58423 31.3438 5.81665 31.5317 6.12085C31.7232 6.42505 31.8189 6.79419 31.8189 7.22827ZM30.8704 7.24365C30.8704 6.99414 30.8174 6.77368 30.7114 6.58228C30.6055 6.39087 30.4585 6.24048 30.2705 6.1311C30.0825 6.01831 29.8638 5.96191 29.6143 5.96191C29.3648 5.96191 29.146 6.01489 28.958 6.12085C28.7734 6.22339 28.6282 6.37036 28.5222 6.56177C28.4197 6.75317 28.3684 6.98047 28.3684 7.24365C28.3684 7.5 28.4197 7.72388 28.5222 7.91528C28.6282 8.10669 28.7752 8.25537 28.9631 8.36133C29.1511 8.46729 29.3699 8.52026 29.6194 8.52026C29.8689 8.52026 30.0859 8.46729 30.2705 8.36133C30.4585 8.25537 30.6055 8.10669 30.7114 7.91528C30.8174 7.72388 30.8704 7.5 30.8704 7.24365ZM37.9052 8.42285V9.56104C37.9052 10.1729 37.8505 10.689 37.7411 11.1094C37.6317 11.5298 37.4745 11.8682 37.2694 12.1245C37.0643 12.3809 36.8165 12.5671 36.526 12.6833C36.2389 12.7961 35.9142 12.8525 35.5519 12.8525C35.2648 12.8525 34.9999 12.8167 34.7572 12.7449C34.5145 12.6731 34.2958 12.5586 34.101 12.4014C33.9096 12.2407 33.7455 12.0322 33.6088 11.7759C33.4721 11.5195 33.3678 11.2085 33.296 10.8428C33.2243 10.4771 33.1884 10.0498 33.1884 9.56104V8.42285C33.1884 7.81104 33.2431 7.29834 33.3524 6.88477C33.4652 6.47119 33.6242 6.13965 33.8292 5.89014C34.0343 5.63721 34.2804 5.45605 34.5675 5.34668C34.858 5.2373 35.1828 5.18262 35.5416 5.18262C35.8322 5.18262 36.0988 5.21851 36.3414 5.29028C36.5875 5.35864 36.8063 5.46973 36.9977 5.62354C37.1891 5.77393 37.3515 5.97559 37.4848 6.22852C37.6215 6.47803 37.7257 6.78394 37.7975 7.14624C37.8693 7.50854 37.9052 7.93408 37.9052 8.42285ZM36.9516 9.71484V8.26392C36.9516 7.92896 36.931 7.63501 36.89 7.38208C36.8524 7.12573 36.796 6.90698 36.7208 6.72583C36.6456 6.54468 36.5499 6.39771 36.4337 6.28491C36.3209 6.17212 36.1893 6.09009 36.039 6.03882C35.892 5.98413 35.7262 5.95679 35.5416 5.95679C35.3161 5.95679 35.1161 5.99951 34.9418 6.08496C34.7675 6.16699 34.6205 6.29858 34.5009 6.47974C34.3847 6.66089 34.2958 6.89844 34.2343 7.19238C34.1727 7.48633 34.142 7.84351 34.142 8.26392V9.71484C34.142 10.0498 34.1608 10.3455 34.1984 10.6018C34.2394 10.8582 34.2992 11.0803 34.3778 11.2683C34.4564 11.4529 34.5521 11.605 34.6649 11.7246C34.7777 11.8442 34.9076 11.9331 35.0546 11.9912C35.205 12.0459 35.3707 12.0732 35.5519 12.0732C35.7843 12.0732 35.9877 12.0288 36.162 11.9399C36.3363 11.8511 36.4816 11.7126 36.5978 11.5247C36.7174 11.3333 36.8063 11.0889 36.8644 10.7915C36.9225 10.4907 36.9516 10.1318 36.9516 9.71484Z" fill="#001E41"/>
<path d="M44.75 9.87515L42.875 8.00952H46.625L44.75 9.87515Z" fill="#001E41"/>
<defs>
<clipPath id="clip0_1_2614">
<rect width="12.75" height="8.25" fill="white" transform="translate(0.5 4.625)"/>
</clipPath>
</defs>
</svg>
